<?xml version="1.0" encoding="UTF-8" standalone="no"?><svg xmlns="http://www.w3.org/2000/svg" xmlns:xlink="http://www.w3.org/1999/xlink" clip-rule="evenodd" stroke-miterlimit="4.00" viewBox="0 0 1024 768"><desc>SVG generated by Keynote</desc><defs></defs><g transform="matrix(1.00, 0.00, -0.00, -1.00, 0.0, 768.0)"><path d="M 0.0 768.0 L 1024.0 768.0 L 1024.0 0.0 L 0.0 0.0 Z M 0.0 768.0 " fill="#FEFFFF"></path><image xlink:href="../../615F7CD4-E262-41F7-8138-806EC6AB1FAB/assets/B0EBF7A13A8FB194B48B7C71C68A2230.png" width="512.00" height="512.00" transform="matrix(0.00, 1.64, 1.64, -0.00, 98.0, -43.0)"></image><image xlink:href="../../24D8CD5A-D318-4AB2-B412-AF92261B86D6/assets/B0A9B3B1DD568C50A70E54D6866660F1.png" width="533.00" height="311.00" transform="matrix(1.00, 0.00, -0.00, -1.00, 247.0, 532.0)"></image><g opacity="0.67"><g><clipPath id="clip-15"><path d="M 0.0 0.0 L 1024.0 0.0 L 1024.0 768.0 L 0.0 768.0 Z M 0.0 0.0 "></path></clipPath><g clip-path="url(#clip-15)"><path d="M 0.0 0.0 L 51.0 0.0 L 57.5 0.0 " fill="none" stroke="#AF2737" stroke-width="13.00" transform="matrix(1.00, 0.00, 0.00, -1.00, 675.2, 376.6)"></path><path d="M 726.2 352.0 L 775.4 376.6 L 726.2 401.2 Z M 726.2 352.0 " fill="#AF2737"></path></g></g></g><g opacity="0.67"><g><clipPath id="clip-16"><path d="M 0.0 0.0 L 1024.0 0.0 L 1024.0 768.0 L 0.0 768.0 Z M 0.0 0.0 "></path></clipPath><g clip-path="url(#clip-16)"><path d="M 0.0 0.0 L 51.0 0.0 L 57.5 0.0 " fill="none" stroke="#AF2737" stroke-width="13.00" transform="matrix(-1.00, 0.00, 0.00, 1.00, 362.4, 376.6)"></path><path d="M 311.4 401.2 L 262.2 376.6 L 311.4 352.0 Z M 311.4 401.2 " fill="#AF2737"></path></g></g></g><g opacity="0.67"><g><clipPath id="clip-17"><path d="M 0.0 0.0 L 1024.0 0.0 L 1024.0 768.0 L 0.0 768.0 Z M 0.0 0.0 "></path></clipPath><g clip-path="url(#clip-17)"><path d="M 0.0 0.0 L 51.0 0.0 L 57.5 0.0 " fill="none" stroke="#AF2737" stroke-width="13.00" transform="matrix(0.00, -1.00, -1.00, 0.00, 517.6, 328.7)"></path><path d="M 493.0 277.8 L 517.6 228.6 L 542.2 277.8 Z M 493.0 277.8 " fill="#AF2737"></path></g></g></g><g opacity="0.67"><g><clipPath id="clip-18"><path d="M 0.0 0.0 L 1024.0 0.0 L 1024.0 768.0 L 0.0 768.0 Z M 0.0 0.0 "></path></clipPath><g clip-path="url(#clip-18)"><path d="M 0.0 0.0 L 51.0 0.0 L 57.5 0.0 " fill="none" stroke="#AF2737" stroke-width="13.00" transform="matrix(0.00, 1.00, 1.00, 0.00, 517.6, 418.6)"></path><path d="M 542.2 469.5 L 517.6 518.7 L 493.0 469.5 Z M 542.2 469.5 " fill="#AF2737"></path></g></g></g></g></svg>