<?xml version="1.0" encoding="UTF-8" standalone="no"?><svg xmlns="http://www.w3.org/2000/svg" xmlns:xlink="http://www.w3.org/1999/xlink" clip-rule="evenodd" stroke-miterlimit="4.00" viewBox="0 0 1024 768"><desc>SVG generated by Keynote</desc><defs></defs><g transform="matrix(1.00, 0.00, -0.00, -1.00, 0.0, 768.0)"><path d="M 0.0 768.0 L 1024.0 768.0 L 1024.0 0.0 L 0.0 0.0 Z M 0.0 768.0 " fill="#FEFFFF"></path><image xlink:href="../../615F7CD4-E262-41F7-8138-806EC6AB1FAB/assets/B0EBF7A13A8FB194B48B7C71C68A2230.png" width="512.00" height="512.00" transform="matrix(0.00, 1.64, 1.64, -0.00, 98.0, -43.0)"></image><image xlink:href="../../615F7CD4-E262-41F7-8138-806EC6AB1FAB/assets/D75C2A5B5CF1C79F491673C3364CF070.png" width="532.00" height="311.00" transform="matrix(1.00, 0.00, -0.00, -1.00, 247.0, 532.0)"></image><path d="M 254.0 434.0 L 411.4 434.0 L 411.4 391.1 L 254.0 391.1 Z M 254.0 434.0 " fill="#763E9B"></path><path d="M 0.0 0.0 L 157.4 0.0 L 157.4 42.9 L 0.0 42.9 Z M 0.0 0.0 " fill="none" stroke="#85878C" stroke-width="2.00" transform="matrix(1.00, 0.00, 0.00, -1.00, 254.0, 434.0)"></path><text xml:space="preserve" font-family="Helvetica-Light" font-size="36.0" fill="#FEFFFF" transform="matrix(1.00, 0.00, -0.00, -1.00, 302.0, 399.0)">1</text><text xml:space="preserve" font-family="Helvetica-Light" font-size="36.0" fill="#FEFFFF" transform="matrix(1.00, 0.00, -0.00, -1.00, 322.0, 399.0)">9</text><text xml:space="preserve" font-family="Helvetica-Light" font-size="36.0" fill="#FEFFFF" transform="matrix(1.00, 0.00, -0.00, -1.00, 342.0, 399.0)">5</text><text xml:space="preserve" font-family="Helvetica-Light" font-size="36.0" fill="#FEFFFF" transform="matrix(1.00, 0.00, -0.00, -1.00, 362.0, 399.0)">0</text><text xml:space="preserve" font-family="Helvetica-Light" font-size="36.0" fill="#FEFFFF" transform="matrix(1.00, 0.00, -0.00, -1.00, 382.1, 399.0)">s</text><text xml:space="preserve" font-family="Helvetica-Light" font-size="36.0" fill="#FEFFFF" transform="matrix(1.00, 0.00, -0.00, -1.00, 255.0, 402.0)">&lt;</text><text xml:space="preserve" font-family="Helvetica-Light" font-size="36.0" fill="#FEFFFF" transform="matrix(1.00, 0.00, -0.00, -1.00, 278.8, 402.0)">&lt;</text><g><clipPath id="clip-6"><path d="M 300.0 336.1 L 461.4 336.1 L 461.4 383.0 L 300.0 383.0 Z M 300.0 336.1 "></path></clipPath><g clip-path="url(#clip-6)"><path d="M 302.0 381.0 L 459.4 381.0 L 459.4 338.1 L 302.0 338.1 Z M 302.0 381.0 " fill="#763E9B"></path><path d="M 0.0 0.0 L 157.4 0.0 L 157.4 42.9 L 0.0 42.9 Z M 0.0 0.0 " fill="none" stroke="#85878C" stroke-width="2.00" transform="matrix(1.00, 0.00, 0.00, -1.00, 302.0, 381.0)"></path></g></g><g><clipPath id="clip-7"><path d="M 340.2 329.1 L 457.2 329.1 L 457.2 390.1 L 340.2 390.1 Z M 340.2 329.1 "></path></clipPath><g clip-path="url(#clip-7)"><text xml:space="preserve" font-family="Helvetica-Light" font-size="36.0" fill="#FEFFFF" transform="matrix(1.00, 0.00, -0.00, -1.00, 350.0, 346.0)">1</text><text xml:space="preserve" font-family="Helvetica-Light" font-size="36.0" fill="#FEFFFF" transform="matrix(1.00, 0.00, -0.00, -1.00, 370.0, 346.0)">9</text><text xml:space="preserve" font-family="Helvetica-Light" font-size="36.0" fill="#FEFFFF" transform="matrix(1.00, 0.00, -0.00, -1.00, 390.0, 346.0)">7</text><text xml:space="preserve" font-family="Helvetica-Light" font-size="36.0" fill="#FEFFFF" transform="matrix(1.00, 0.00, -0.00, -1.00, 410.0, 346.0)">0</text><text xml:space="preserve" font-family="Helvetica-Light" font-size="36.0" fill="#FEFFFF" transform="matrix(1.00, 0.00, -0.00, -1.00, 430.1, 346.0)">s</text></g></g><g><clipPath id="clip-8"><path d="M 293.7 332.1 L 360.3 332.1 L 360.3 393.1 L 293.7 393.1 Z M 293.7 332.1 "></path></clipPath><g clip-path="url(#clip-8)"><text xml:space="preserve" font-family="Helvetica-Light" font-size="36.0" fill="#FEFFFF" transform="matrix(1.00, 0.00, -0.00, -1.00, 303.0, 349.0)">&lt;</text><text xml:space="preserve" font-family="Helvetica-Light" font-size="36.0" fill="#FEFFFF" transform="matrix(1.00, 0.00, -0.00, -1.00, 326.8, 349.0)">&lt;</text></g></g></g></svg>