<?xml version="1.0" encoding="UTF-8" standalone="no"?><svg xmlns="http://www.w3.org/2000/svg" xmlns:xlink="http://www.w3.org/1999/xlink" clip-rule="evenodd" stroke-miterlimit="4.00" viewBox="0 0 1024 768"><desc>SVG generated by Keynote</desc><defs></defs><g transform="matrix(1.00, 0.00, -0.00, -1.00, 0.0, 768.0)"><path d="M 0.0 768.0 L 1024.0 768.0 L 1024.0 0.0 L 0.0 0.0 Z M 0.0 768.0 " fill="#FEFFFF"></path><image xlink:href="../../615F7CD4-E262-41F7-8138-806EC6AB1FAB/assets/B0EBF7A13A8FB194B48B7C71C68A2230.png" width="512.00" height="512.00" transform="matrix(0.00, 1.64, 1.64, -0.00, 98.0, -43.0)"></image><g><clipPath id="clip-37"><path d="M 247.0 533.0 L 780.0 533.0 L 780.0 222.0 L 247.0 222.0 Z M 247.2 532.5 "></path></clipPath><g clip-path="url(#clip-37)"><image xlink:href="../../24D8CD5A-D318-4AB2-B412-AF92261B86D6/assets/B0A9B3B1DD568C50A70E54D6866660F1.png" width="533.00" height="311.00" transform="matrix(1.00, 0.00, -0.00, -1.00, 247.0, 532.0)"></image></g></g><path d="M 560.0 384.0 L 717.4 384.0 L 717.4 341.1 L 560.0 341.1 Z M 560.0 384.0 " fill="#763E9B"></path><path d="M 0.0 0.0 L 157.4 0.0 L 157.4 42.9 L 0.0 42.9 Z M 0.0 0.0 " fill="none" stroke="#85878C" stroke-width="2.00" transform="matrix(1.00, 0.00, 0.00, -1.00, 560.0, 384.0)"></path><text xml:space="preserve" font-family="Helvetica-Light" font-size="36.0" fill="#FEFFFF" transform="matrix(1.00, 0.00, -0.00, -1.00, 561.0, 349.0)">1</text><text xml:space="preserve" font-family="Helvetica-Light" font-size="36.0" fill="#FEFFFF" transform="matrix(1.00, 0.00, -0.00, -1.00, 581.0, 349.0)">9</text><text xml:space="preserve" font-family="Helvetica-Light" font-size="36.0" fill="#FEFFFF" transform="matrix(1.00, 0.00, -0.00, -1.00, 601.0, 349.0)">7</text><text xml:space="preserve" font-family="Helvetica-Light" font-size="36.0" fill="#FEFFFF" transform="matrix(1.00, 0.00, -0.00, -1.00, 621.0, 349.0)">0</text><text xml:space="preserve" font-family="Helvetica-Light" font-size="36.0" fill="#FEFFFF" transform="matrix(1.00, 0.00, -0.00, -1.00, 641.1, 349.0)">s</text><text xml:space="preserve" font-family="Helvetica-Light" font-size="36.0" fill="#FEFFFF" transform="matrix(1.00, 0.00, -0.00, -1.00, 669.0, 349.0)">&gt;</text><text xml:space="preserve" font-family="Helvetica-Light" font-size="36.0" fill="#FEFFFF" transform="matrix(1.00, 0.00, -0.00, -1.00, 692.8, 349.0)">&gt;</text><path d="M 614.3 439.0 L 771.7 439.0 L 771.7 396.1 L 614.3 396.1 Z M 614.3 439.0 " fill="#763E9B"></path><path d="M 0.0 0.0 L 157.4 0.0 L 157.4 42.9 L 0.0 42.9 Z M 0.0 0.0 " fill="none" stroke="#85878C" stroke-width="2.00" transform="matrix(1.00, 0.00, 0.00, -1.00, 614.3, 439.0)"></path><text xml:space="preserve" font-family="Helvetica-Light" font-size="36.0" fill="#FEFFFF" transform="matrix(1.00, 0.00, -0.00, -1.00, 619.0, 404.0)">T</text><text xml:space="preserve" font-family="Helvetica-Light" font-size="36.0" fill="#FEFFFF" transform="matrix(1.00, 0.00, -0.00, -1.00, 635.0, 404.0)">o</text><text xml:space="preserve" font-family="Helvetica-Light" font-size="36.0" fill="#FEFFFF" transform="matrix(1.00, 0.00, -0.00, -1.00, 655.0, 404.0)">d</text><text xml:space="preserve" font-family="Helvetica-Light" font-size="36.0" fill="#FEFFFF" transform="matrix(1.00, 0.00, -0.00, -1.00, 677.0, 404.0)">a</text><text xml:space="preserve" font-family="Helvetica-Light" font-size="36.0" fill="#FEFFFF" transform="matrix(1.00, 0.00, -0.00, -1.00, 697.0, 404.0)">y</text><text xml:space="preserve" font-family="Helvetica-Light" font-size="36.0" fill="#FEFFFF" transform="matrix(1.00, 0.00, -0.00, -1.00, 724.0, 404.0)">&gt;</text><text xml:space="preserve" font-family="Helvetica-Light" font-size="36.0" fill="#FEFFFF" transform="matrix(1.00, 0.00, -0.00, -1.00, 747.8, 404.0)">&gt;</text></g></svg>