<?xml version="1.0" encoding="UTF-8" standalone="no"?><svg xmlns="http://www.w3.org/2000/svg" xmlns:xlink="http://www.w3.org/1999/xlink" clip-rule="evenodd" stroke-miterlimit="4.00" viewBox="0 0 1024 768"><desc>SVG generated by Keynote</desc><defs></defs><g transform="matrix(1.00, 0.00, -0.00, -1.00, 0.0, 768.0)"><path d="M 0.0 768.0 L 1024.0 768.0 L 1024.0 0.0 L 0.0 0.0 Z M 0.0 768.0 " fill="#FEFFFF"></path><image xlink:href="../../615F7CD4-E262-41F7-8138-806EC6AB1FAB/assets/B0EBF7A13A8FB194B48B7C71C68A2230.png" width="512.00" height="512.00" transform="matrix(0.00, 1.64, 1.64, -0.00, 98.0, -43.0)"></image><image xlink:href="../../8F67699A-EB53-4775-A6D6-65B8CD72EA9C/assets/CA4A5FFF6273B8033E6EFB643DB2D4BD.png" width="533.00" height="311.00" transform="matrix(1.00, 0.00, -0.00, -1.00, 247.0, 532.0)"></image><g><clipPath id="clip-29"><path d="M 415.0 384.0 L 473.0 384.0 L 473.0 442.0 L 415.0 442.0 Z M 415.0 384.0 "></path></clipPath><g clip-path="url(#clip-29)"><image xlink:href="../../8F67699A-EB53-4775-A6D6-65B8CD72EA9C/assets/F54AE50635728BC994BE30D844892344.png" width="56.00" height="56.00" transform="matrix(1.00, 0.00, -0.00, -1.00, 416.0, 441.0)" opacity="0.39"></image><path d="M 461.7 432.6 C 471.4 422.9 471.4 407.1 461.7 397.3 C 451.9 387.6 436.1 387.6 426.3 397.3 C 416.6 407.1 416.6 422.9 426.3 432.6 C 436.1 442.4 451.9 442.4 461.7 432.6 Z M 461.7 432.6 " fill="#914507" fill-opacity="0.79"></path></g></g><g><clipPath id="clip-30"><path d="M 418.6 384.2 L 469.4 384.2 L 469.4 457.8 L 418.6 457.8 Z M 418.6 384.2 "></path></clipPath><g clip-path="url(#clip-30)"><text xml:space="preserve" font-family="Helvetica-Light" font-size="43.0" fill="#FEFFFF" transform="matrix(1.00, 0.00, -0.00, -1.00, 430.0, 405.0)">+</text></g></g><g><clipPath id="clip-31"><path d="M 717.0 302.0 L 775.0 302.0 L 775.0 360.0 L 717.0 360.0 Z M 717.0 302.0 "></path></clipPath><g clip-path="url(#clip-31)"><image xlink:href="../../8F67699A-EB53-4775-A6D6-65B8CD72EA9C/assets/F54AE50635728BC994BE30D844892344.png" width="56.00" height="56.00" transform="matrix(1.00, 0.00, -0.00, -1.00, 718.0, 359.0)" opacity="0.39"></image><path d="M 763.7 350.6 C 773.4 340.9 773.4 325.1 763.7 315.3 C 753.9 305.6 738.1 305.6 728.3 315.3 C 718.6 325.1 718.6 340.9 728.3 350.6 C 738.1 360.4 753.9 360.4 763.7 350.6 Z M 763.7 350.6 " fill="#914507" fill-opacity="0.79"></path></g></g><g><clipPath id="clip-32"><path d="M 720.6 302.2 L 771.4 302.2 L 771.4 375.8 L 720.6 375.8 Z M 720.6 302.2 "></path></clipPath><g clip-path="url(#clip-32)"><text xml:space="preserve" font-family="Helvetica-Light" font-size="43.0" fill="#FEFFFF" transform="matrix(1.00, 0.00, -0.00, -1.00, 732.0, 323.0)">+</text></g></g><g><clipPath id="clip-33"><path d="M 271.0 221.0 L 329.0 221.0 L 329.0 279.0 L 271.0 279.0 Z M 271.0 221.0 "></path></clipPath><g clip-path="url(#clip-33)"><image xlink:href="../../8F67699A-EB53-4775-A6D6-65B8CD72EA9C/assets/F54AE50635728BC994BE30D844892344.png" width="56.00" height="56.00" transform="matrix(1.00, 0.00, -0.00, -1.00, 272.0, 278.0)" opacity="0.39"></image><path d="M 317.7 269.6 C 327.4 259.9 327.4 244.1 317.7 234.3 C 307.9 224.6 292.1 224.6 282.3 234.3 C 272.6 244.1 272.6 259.9 282.3 269.6 C 292.1 279.4 307.9 279.4 317.7 269.6 Z M 317.7 269.6 " fill="#914507" fill-opacity="0.79"></path></g></g><g><clipPath id="clip-34"><path d="M 274.6 221.2 L 325.4 221.2 L 325.4 294.8 L 274.6 294.8 Z M 274.6 221.2 "></path></clipPath><g clip-path="url(#clip-34)"><text xml:space="preserve" font-family="Helvetica-Light" font-size="43.0" fill="#FEFFFF" transform="matrix(1.00, 0.00, -0.00, -1.00, 286.0, 242.0)">+</text></g></g></g></svg>