<?xml version="1.0" encoding="UTF-8" standalone="no"?><svg xmlns="http://www.w3.org/2000/svg" xmlns:xlink="http://www.w3.org/1999/xlink" clip-rule="evenodd" stroke-miterlimit="4.00" viewBox="0 0 1024 768"><desc>SVG generated by Keynote</desc><defs></defs><g transform="matrix(1.00, 0.00, -0.00, -1.00, 0.0, 768.0)"><path d="M 0.0 768.0 L 1024.0 768.0 L 1024.0 0.0 L 0.0 0.0 Z M 0.0 768.0 " fill="#FEFFFF"></path><image xlink:href="B0EBF7A13A8FB194B48B7C71C68A2230.png" width="512.00" height="512.00" transform="matrix(0.00, 1.64, 1.64, -0.00, 98.0, -43.0)"></image><image xlink:href="D75C2A5B5CF1C79F491673C3364CF070.png" width="532.00" height="311.00" transform="matrix(1.00, 0.00, -0.00, -1.00, 247.0, 532.0)"></image><g opacity="0.81"><g><clipPath id="clip-0"><path d="M 447.0 266.0 L 588.0 266.0 L 588.0 321.0 L 447.0 321.0 Z M 447.0 266.0 "></path></clipPath><g clip-path="url(#clip-0)"><image xlink:href="DF2AA90773AC4FD3E3025DA7D16238E9.png" width="137.00" height="49.00" transform="matrix(1.00, 0.00, -0.00, -1.00, 448.9, 315.9)" opacity="0.50"></image></g></g><g><clipPath id="clip-1"><path d="M 451.9 314.9 L 583.3 314.9 L 583.3 272.0 L 451.9 272.0 Z M 451.9 314.9 "></path></clipPath><g clip-path="url(#clip-1)"><g><clipPath id="clip-2"><path d="M 447.0 266.0 L 588.0 266.0 L 588.0 321.0 L 447.0 321.0 Z M 447.0 266.0 "></path></clipPath><g clip-path="url(#clip-2)"><image xlink:href="D5BAA0E7A80E113D25EB92D00157B4C8.jpeg" width="300.00" height="300.00" transform="matrix(1.00, 0.00, -0.00, -1.00, 451.9, 314.9)"></image><path d="M 451.9 314.9 L 583.3 314.9 L 583.3 272.0 L 451.9 272.0 Z M 451.9 314.9 " fill="#FF2A05" fill-opacity="0.50"></path></g></g></g></g></g><text xml:space="preserve" font-family="Helvetica-Light" font-size="36.0" fill="#000000" transform="matrix(1.00, 0.00, -0.00, -1.00, 472.0, 281.0)">T</text><text xml:space="preserve" font-family="Helvetica-Light" font-size="36.0" fill="#000000" transform="matrix(1.00, 0.00, -0.00, -1.00, 488.0, 281.0)">o</text><text xml:space="preserve" font-family="Helvetica-Light" font-size="36.0" fill="#000000" transform="matrix(1.00, 0.00, -0.00, -1.00, 508.0, 281.0)">d</text><text xml:space="preserve" font-family="Helvetica-Light" font-size="36.0" fill="#000000" transform="matrix(1.00, 0.00, -0.00, -1.00, 530.0, 281.0)">a</text><text xml:space="preserve" font-family="Helvetica-Light" font-size="36.0" fill="#000000" transform="matrix(1.00, 0.00, -0.00, -1.00, 550.0, 281.0)">y</text></g></svg>